<?xml version="1.0" encoding="utf-8"?>
<!-- Generator: Adobe Illustrator 19.0.0, SVG Export Plug-In . SVG Version: 6.00 Build 0)  -->
<svg version="1.1" id="Layer_1" xmlns="http://www.w3.org/2000/svg" xmlns:xlink="http://www.w3.org/1999/xlink" x="0px" y="0px"
	 viewBox="-524 296 229.5 210" style="enable-background:new -524 296 229.5 210;" xml:space="preserve">
<style type="text/css">
	.st0{fill:#00A0C6;}
	.st1{fill:#0BFF28;}
	.st2{fill:#FFFFFF;}
</style>
<ellipse id="XMLID_471_" class="st0" cx="-441.2" cy="341.4" rx="29.8" ry="30.2"/>
<path id="XMLID_480_" class="st0" d="M-385.1,431.4c0-41.4-22.3-75-55.4-75s-56.2,33.6-56.2,75h-3.8l120,0.1
	C-380.6,431.5-385.1,431.4-385.1,431.4z"/>
<circle class="st1" cx="-369.9" cy="431.5" r="52.5"/>
<path class="st2" d="M-378.5,440.2c-5.8,0-11.2,0-16.7,0c-4.6,0-8.7-2.2-9.7-7.4c-0.7-3.6,2.2-9.6,7.3-9.6c5.6,0,11.2,0,16.8,0
	c0.7,0,1.3,0,2.2,0c0-6,0-11.9,0-17.7c0-7,6.7-11,12.8-7.7c2.7,1.4,4.1,3.8,4.1,6.8c0.1,6.1,0,12.3,0,18.7c1.1,0,2,0,3,0
	c5,0,10.1,0.2,15.1-0.1c4-0.2,7.9,2.9,8.4,7.5c0.5,3.9-2.3,8.5-6.7,9.1c-1.5,0.2-3,0.4-4.5,0.4c-5,0-10.1,0-15.3,0
	c0,0.8-0.1,1.4-0.1,2.1c0,5.2,0,10.5,0,15.7c0,4.6-3.5,8-7.7,8.3c-5.9,0.5-9.3-4.4-9.2-8.4C-378.5,452.2-378.5,446.3-378.5,440.2z"
	/>
</svg>
