<?xml version="1.0" encoding="utf-8"?>
<!-- Generator: Adobe Illustrator 19.0.0, SVG Export Plug-In . SVG Version: 6.00 Build 0)  -->
<svg version="1.1" id="Layer_1" xmlns="http://www.w3.org/2000/svg" xmlns:xlink="http://www.w3.org/1999/xlink" x="0px" y="0px"
	 viewBox="0 0 277 104" style="enable-background:new 0 0 277 104;" xml:space="preserve">
<style type="text/css">
	.st0{fill:#00A0C6;}
</style>
<g id="XMLID_118_">
	<g id="XMLID_137_">
		<path id="XMLID_150_" class="st0" d="M77.2,40.6H91l14.3,44.8H92.7l-2.3-8.8H77.8l-2.3,8.8H62.9L77.2,40.6z M88.2,68.4l-4.2-15.8
			l-4.2,15.8H88.2z"/>
		<path id="XMLID_148_" class="st0" d="M126.5,80.6c-0.7,1.9-4.3,4.6-7.5,5.1c-1.3,0.2-2.5,0.3-3.8,0.3c-1.8,0-3.5-0.3-5-0.9
			s-2.7-1.6-3.6-3c-0.9-1.4-1.4-3.2-1.4-5.6V61.7h-4.1v-9h4.1V42.2h12v10.4h6.5v9h-6.5v10.6c0,1.1,0.2,1.8,0.7,2.2
			c0.5,0.4,1.1,0.6,1.9,0.6c0.6,0,1.3-0.1,2-0.3c0.8-0.2,3.7-2.2,4.7-4V80.6z"/>
		<path id="XMLID_146_" class="st0" d="M159.9,85.4h-12V67.2c0-1.6-0.4-2.8-1.1-3.5c-0.7-0.7-1.7-1.1-2.7-1.1
			c-0.5,0-1.1,0.2-1.9,0.5c-0.7,0.4-1.4,0.9-2.1,1.6c-0.7,0.7-1.2,1.5-1.6,2.4v18.3h-12v-4.8v-9.8V39.3h12v18.3
			c1.2-1.8,2.7-3.1,4.6-4.1c1.9-0.9,4-1.4,6.3-1.4c2.4,0,4.2,0.4,5.6,1.1s2.4,1.7,3.1,2.9c0.7,1.2,1.1,2.5,1.4,3.8
			c0.2,1.4,0.3,2.6,0.3,3.8V85.4z"/>
		<path id="XMLID_143_" class="st0" d="M178.9,86c-2.9,0-5.5-0.4-7.8-1.3c-2.3-0.9-4.2-2.1-5.7-3.6c-1.5-1.5-2.7-3.3-3.5-5.3
			c-0.8-2-1.2-4.1-1.2-6.3c0-3.1,0.7-6,2.1-8.6c1.4-2.6,3.4-4.7,6.1-6.3c2.7-1.6,6-2.4,10-2.4c4,0,7.3,0.8,10,2.4
			c2.7,1.6,4.7,3.6,6.1,6.2c1.4,2.6,2.1,5.4,2.1,8.4c0,0.6,0,1.3-0.1,1.9c-0.1,0.6-0.1,1.2-0.2,1.7h-23.3c0.1,1.1,0.4,2,1,2.7
			s1.3,1.2,2.1,1.5c0.9,0.3,1.8,0.5,2.7,0.5c1.3,0,2.5-0.3,3.7-0.9c1.2-0.6,1.9-1.4,2.3-2.5l10.2,2.9c-0.9,1.8-2.1,3.3-3.7,4.7
			c-1.6,1.3-3.4,2.4-5.6,3.2C184,85.6,181.6,86,178.9,86z M173.2,65.5h11c-0.1-1-0.4-1.9-0.9-2.6c-0.5-0.7-1.1-1.3-1.9-1.7
			c-0.8-0.4-1.7-0.6-2.7-0.6c-1,0-1.9,0.2-2.7,0.6c-0.8,0.4-1.4,0.9-1.9,1.7C173.6,63.6,173.3,64.5,173.2,65.5z"/>
		<path id="XMLID_141_" class="st0" d="M231.2,85.4h-12V67.2c0-1.6-0.4-2.8-1.1-3.5c-0.7-0.7-1.6-1.1-2.6-1.1
			c-0.7,0-1.4,0.2-2.1,0.6c-0.8,0.4-1.5,0.9-2.1,1.6c-0.6,0.7-1.1,1.5-1.5,2.3v18.3h-12V52.6h10.8v5c0.8-1.2,1.8-2.2,3-3
			c1.2-0.8,2.6-1.4,4.2-1.8c1.6-0.4,3.3-0.6,5.2-0.6c2.3,0,4.1,0.4,5.4,1.2c1.3,0.8,2.4,1.8,3,3c0.7,1.2,1.1,2.5,1.3,3.9
			c0.2,1.3,0.3,2.6,0.3,3.7V85.4z"/>
		<path id="XMLID_138_" class="st0" d="M232,75.5c0-2.2,0.6-4.1,1.8-5.8c1.2-1.7,2.9-3,5.1-3.9c2.2-1,4.6-1.4,7.4-1.4
			c1.3,0,2.5,0.1,3.7,0.3c1.2,0.2,2.2,0.5,3,0.9v-1c0-1.5-0.5-2.6-1.4-3.3c-0.9-0.7-2.4-1.1-4.4-1.1c-1.9,0-3.6,0.3-5.2,0.9
			c-1.6,0.6-3.3,1.5-5.1,2.7l-3.5-7.4c2.2-1.4,4.6-2.5,7-3.2c2.5-0.7,5.1-1,7.9-1c5.3,0,9.3,1.2,12.2,3.5c2.9,2.3,4.3,5.8,4.3,10.3
			v6.3c0,1.1,0.2,1.9,0.5,2.3c0.3,0.4,0.9,0.7,1.8,0.8v10.1c-1,0.2-1.9,0.4-2.7,0.5c-0.9,0.1-1.6,0.2-2.3,0.2
			c-2.1,0-3.8-0.4-4.9-1.2c-1.1-0.8-1.8-1.9-2.2-3.4l-0.3-1.2c-1.5,1.9-3.2,3.3-5.1,4.3c-1.9,1-4,1.5-6.2,1.5
			c-2.2,0-4.2-0.5-5.9-1.4c-1.8-0.9-3.2-2.2-4.2-3.7C232.5,79.3,232,77.5,232,75.5z M251.4,76.2c0.5-0.3,0.8-0.7,1.1-1
			c0.3-0.4,0.4-0.8,0.4-1.2v-2.3c-0.7-0.2-1.4-0.4-2.3-0.6c-0.9-0.2-1.6-0.2-2.3-0.2c-1.4,0-2.6,0.3-3.6,1c-1,0.7-1.5,1.5-1.5,2.6
			c0,0.6,0.2,1.1,0.5,1.5c0.3,0.5,0.8,0.8,1.4,1.1c0.6,0.3,1.3,0.4,2,0.4c0.7,0,1.5-0.1,2.2-0.3C250.2,76.9,250.9,76.6,251.4,76.2z"
			/>
	</g>
	<g id="XMLID_119_">
		<path id="XMLID_136_" class="st0" d="M27.1,96.7c0,0-0.4-3.4,0.3-3.7c0.7-0.3,2.2,2.9,3,2.8s0.6-3.3,3.3-4.4
			c4.3-1.9,6-7.2,8.3-7.2s3.7,3.6,3.7,3.6l3.2,7.4v1.6H27.1z"/>
		<g id="XMLID_120_">
			<path id="XMLID_132_" class="st0" d="M18.3,7.3c0,0-1.9,15.9,6.1,15c8-1,11.3,0.6,11.3,0.6l-1.1,3.6c-2.7,0-6,0.5-8.3,2.4
				c-2.3,1.9-4.7,8.8-4.7,8.8l-0.8,2.9c1.7-0.8,1,1.5-0.8,4.6l0,0.1c0,0-10.7,14.1-10.8,19.4c0,1.8,6-1,13.1-1
				c2.7,0,8.5-0.5,10.7-1.6c2.2-1.1,15.6,7.3,15.6,7.3l8.6,0l15-46.3L18.3,7.3z M23.4,44.3c2.5-3.4,6.5-2.2,7.5,1.6
				C27,47.4,24.5,46.9,23.4,44.3z M22.6,44l-5.5,9.5h-1.6l0-1.3c0,0,0.6,0.1,0.7,0c0.1-0.1,5.7-8.6,5.7-8.6c2.4-4.1,6.9-4.6,9-0.8
				l0,0.3C28.1,39.8,25.3,39.9,22.6,44z"/>
			<g id="XMLID_121_">
				<g id="XMLID_123_">
					<path id="XMLID_131_" class="st0" d="M15.2,66.5c0,0.3,0.1,0.6,0.4,0.9c0.3-0.3,0.8-0.3,1.6,0C16.9,66.1,15.8,65.8,15.2,66.5z"
						/>
					<path id="XMLID_124_" class="st0" d="M41.4,80.5c-0.3-0.3-1.3-0.2-2-0.8c-0.7-0.7-1-1.6-1.3-2.3c-0.3-0.7-2.2-2.9-2.4-3.8
						c-0.2-0.9-2.3-2.9-2.8-3.4c-0.5-0.5-1.2-2.7-1.2-2.7s-0.5-0.2-1.2-1.5c-0.3-0.6-1.7-0.6-2.9-0.7c-1.4-0.2-2.7-0.5-3.2-0.5
						c-0.9,0-1.7,0.1-2.5,0.2c-0.8,0.1-2.6,0.7-2.9,1c-0.3,0.3-2,2.9-2,2.9l-0.5,0.6c-0.2,2.6-2.3,7.3-2.1,8.2c0.3,1.8,3,1.7,3,1.7
						l0.3,1c0,0-0.2,0.5-0.3,0.7c-0.1,0.3,0.3,0.9,0.6,0.9c0.6,0.3,0.2,0.8,0.2,0.8s-0.3,0.5-0.2,0.8c0.1,0.3,0.6,0.9,0.7,1.1
						c-0.1,0.7,0.2,2.9,0.4,3.5c1.3,4,8.8,3.7,12.5,3.1C36.3,90.6,41.8,80.9,41.4,80.5z M17.2,77.4c-0.3,0.2-1.5,0.4-1.7-0.3
						c0,0,2.5-8.3,4.4-10.8c0.2,0.7,0.5,1.3,1,1.8c-1.4,2.3-2.5,5.6-2.3,8.7C17.8,76.7,17.2,77.4,17.2,77.4z M21.7,85.4
						c-0.7,0.3-1.5,0.1-2.4-0.3c0,0-0.4-0.6-0.4-0.7s0.3-0.1,0.3-0.1s0.5,0.3,0.8,0.4s0.7-0.2,1.1-0.2c0.4,0,2.1,0.2,2,0.4
						C23,85.1,21.7,85.4,21.7,85.4z M23.8,83c-0.4,0.1-2-0.1-2.2-0.1c-0.2-0.1-0.5-0.1-0.5-0.1s-0.4,0-0.7,0c-0.3,0-0.4,0.2-0.8,0.2
						s-0.4-0.4-0.3-0.5c0-0.2,0.6-0.3,1.1-0.3s1,0.2,1,0.2s1.4,0.3,1.9,0.2c0.3,0,0.9,0,0.9,0c0,0,0.7,0.5,0.6,0.8
						c0,0.1-0.4-0.3-0.6-0.4C24,83,23.8,83,23.8,83z M19.8,80.2l-0.7,0.6c-0.2,0-0.5-0.7-0.8-1.2c0.1,0,0.3,0,0.4,0h0
						c0.2-0.1,0.7-0.3,0.6-0.6c-0.3-0.4-1.1,0.4-1.8,0c1.2-0.7,2.1-0.5,2.8,0c0,0.2-0.4,0.4-0.7,0.3c-0.1-0.1-0.3,0.3,0,0.4
						c0.6,0.2,1.1-0.3,1.3-0.6c0.4-1.5-0.3-0.9-1.2-3.3l1.2,1.8c0.6,1,2,2.1,3.6,2.8C23.6,80,21.6,79.9,19.8,80.2z M25.5,70.5
						c-1.6,0-2.5-1.8-2.5-1.8l-0.3-0.1c0,0-0.1-0.5,0.2-0.7c0.3-0.2,1.9-0.9,2.8-0.9c2.1,0,3,1.5,3,1.5S28.1,70.4,25.5,70.5z"/>
				</g>
				<path id="XMLID_122_" class="st0" d="M28.6,63.7c2.2,0.7,3.9,1.6,4.2,2.6c-0.4,1.2-0.2,2.5,0.9,2.9c1.3,0.5,2.8,2,2.6,3
					C36,72.4,36.3,73,36.7,73c1,0.1,2.8,1.3,2.3,3.5c-0.4,1.6,1,3.4,3,2.6c0.3,2,3.6,1.7,4.4,1.2c0.9-0.5,2.1-1.4,1.9-3.7
					c1.2,2.6-1,4.6-2.8,4.9c1.7,0.7,1.8,1.5,1.5,2c-0.4,1-0.1,1.6,0.4,2c0.7,0.7,0.8,1.5,0.8,2.3c0,1,0.7,1.2,1.5,1.4l0.9,7.5H56
					l-1.5-22.1c-1.4,1-4.8,0.6-4.3-0.6c0.5-1.2,0.1-3.4-1.4-3.1s-3.8,0.1-3.7-1.3c0.1-1.4-2.1-2.9-3.2-2.7s-3,0.4-4.1-2.2
					c-0.4-0.7-2.4-1.8-4-1.8C31,63,28.6,63.7,28.6,63.7z"/>
			</g>
		</g>
	</g>
</g>
</svg>
