<?xml version="1.0" encoding="utf-8"?>
<!-- Generator: Adobe Illustrator 19.0.0, SVG Export Plug-In . SVG Version: 6.00 Build 0)  -->
<svg version="1.1" id="Layer_1" xmlns="http://www.w3.org/2000/svg" xmlns:xlink="http://www.w3.org/1999/xlink" x="0px" y="0px"
	 viewBox="0 0 1280 800" style="enable-background:new 0 0 1280 800;" xml:space="preserve">
<style type="text/css">
	.st0{fill:#FFFFFF;}
</style>
<g id="XMLID_32_">
	<g id="XMLID_65_">
		<path id="XMLID_87_" class="st0" d="M352.5,346.9h65.9l68.4,214.8h-59.9l-11.1-42h-60.7l-11.1,42h-60.2L352.5,346.9z M405.4,480.2
			l-20-75.6l-20,75.6H405.4z"/>
		<path id="XMLID_85_" class="st0" d="M589,538.6c-3.5,9.3-20.6,21.9-36.1,24.6c-6.1,1.1-12.2,1.5-18,1.5c-8.7,0-16.6-1.4-23.9-4.3
			c-7.3-2.9-13.1-7.6-17.4-14.2c-4.3-6.6-6.5-15.6-6.5-26.8v-71.4h-19.7v-43.3h19.7v-49.9h57.5v49.9h31.2v43.3h-31.2v50.7
			c0,5.1,1.1,8.6,3.3,10.6c2.2,2,5.2,3.1,9.1,3.1c2.8,0,6-0.5,9.7-1.5c3.6-1,17.9-10.7,22.4-19.1V538.6z"/>
		<path id="XMLID_83_" class="st0" d="M749,561.6h-57.5v-87.4c0-7.7-1.8-13.2-5.3-16.7c-3.5-3.4-7.9-5.2-13.2-5.2
			c-2.4,0-5.4,0.9-8.9,2.6c-3.5,1.7-6.9,4.2-10.1,7.4c-3.2,3.2-5.7,7.1-7.6,11.4v87.7H589v-23.1v-46.9V340.8h57.5v87.6
			c5.6-8.5,13.1-15,22.2-19.5c9.2-4.5,19.3-6.7,30.4-6.7c11.3,0,20.3,1.8,26.9,5.5c6.7,3.7,11.6,8.4,14.8,14.1
			c3.2,5.8,5.4,11.9,6.5,18.4c1.1,6.5,1.7,12.7,1.7,18.4V561.6z"/>
		<path id="XMLID_80_" class="st0" d="M840,564.6c-13.9,0-26.3-2.1-37.2-6.4c-10.9-4.3-20-10.1-27.4-17.4
			c-7.4-7.3-13-15.8-16.8-25.3c-3.8-9.5-5.7-19.6-5.7-30.1c0-15,3.3-28.9,10-41.4c6.7-12.6,16.4-22.7,29.3-30.3
			c12.9-7.6,28.8-11.4,47.8-11.4c19,0,34.9,3.8,47.8,11.3c12.9,7.5,22.7,17.5,29.3,29.8c6.7,12.3,10,25.7,10,40.2c0,3-0.1,6-0.5,9.1
			c-0.3,3.1-0.7,5.8-1.1,8.2H814c0.4,5.4,2,9.7,4.7,13.1c2.7,3.4,6.1,5.8,10.3,7.3c4.1,1.5,8.4,2.3,12.9,2.3
			c6.2,0,12.1-1.4,17.7-4.2c5.5-2.8,9.2-6.8,11-11.8l48.7,13.9c-4.2,8.5-10.1,15.9-17.7,22.4c-7.6,6.5-16.5,11.5-26.8,15.3
			C864.5,562.8,852.9,564.6,840,564.6z M812.8,466.3h52.6c-0.6-4.9-2.1-9.1-4.4-12.5c-2.3-3.4-5.3-6.1-9.1-8
			c-3.7-1.9-8-2.8-12.9-2.8c-4.8,0-9.1,0.9-12.9,2.8c-3.7,1.9-6.8,4.5-9.1,8C814.9,457.2,813.4,461.4,812.8,466.3z"/>
		<path id="XMLID_69_" class="st0" d="M1090.8,561.6h-57.5v-87.4c0-7.7-1.8-13.2-5.3-16.7c-3.5-3.4-7.6-5.2-12.3-5.2
			c-3.2,0-6.7,0.9-10.3,2.7c-3.6,1.8-7,4.3-10,7.6c-3,3.2-5.4,7-7.3,11.2v87.7h-57.5v-157h51.7v23.7c3.8-5.7,8.7-10.6,14.5-14.4
			c5.8-3.9,12.6-6.8,20.3-8.8c7.7-2,16-3,25.1-3c10.9,0,19.6,1.9,26,5.7c6.5,3.8,11.3,8.6,14.5,14.6c3.2,5.9,5.3,12.1,6.4,18.6
			c1,6.4,1.5,12.3,1.5,17.7V561.6z"/>
		<path id="XMLID_66_" class="st0" d="M1094.7,514.4c0-10.5,2.9-19.8,8.8-27.8c5.8-8,14-14.3,24.3-18.9c10.4-4.6,22.2-6.8,35.5-6.8
			c6.2,0,12.1,0.5,17.7,1.5c5.5,1,10.3,2.5,14.4,4.5v-4.8c0-7.2-2.2-12.5-6.5-16c-4.3-3.5-11.3-5.2-21-5.2c-8.9,0-17.2,1.5-25,4.4
			c-7.8,2.9-15.9,7.2-24.3,12.9l-16.6-35.7c10.7-6.9,21.9-11.9,33.7-15.3c11.8-3.3,24.5-5,38-5c25.2,0,44.7,5.6,58.5,16.7
			s20.7,27.6,20.7,49.4v30.1c0,5.3,0.8,9,2.4,11.1c1.6,2.1,4.4,3.3,8.5,3.7v48.4c-4.6,1-9,1.8-13.2,2.3c-4.1,0.5-7.8,0.8-11,0.8
			c-10.3,0-18.1-1.9-23.4-5.6c-5.3-3.7-8.8-9.2-10.4-16.5l-1.2-5.7c-7.1,9.1-15.2,16-24.5,20.7c-9.3,4.7-19.2,7.1-29.6,7.1
			c-10.5,0-20-2.2-28.4-6.5c-8.5-4.4-15.1-10.4-20-18C1097.1,532.5,1094.7,523.9,1094.7,514.4z M1187.9,517.8c2.2-1.5,4-3.2,5.4-5
			c1.4-1.8,2.1-3.7,2.1-5.6V496c-3.2-1.1-6.9-2.1-11-2.9c-4.1-0.8-7.8-1.1-11-1.1c-6.9,0-12.7,1.6-17.4,4.9
			c-4.7,3.2-7.1,7.3-7.1,12.3c0,2.7,0.8,5.1,2.4,7.3c1.6,2.2,3.8,3.9,6.7,5.1c2.8,1.2,6.1,1.9,9.7,1.9c3.4,0,7-0.5,10.7-1.6
			C1182.1,520.9,1185.2,519.5,1187.9,517.8z"/>
	</g>
	<g id="XMLID_34_">
		<path id="XMLID_64_" class="st0" d="M112,616c0,0-1.9-16.3,1.5-17.9c3.5-1.5,10.5,13.9,14.3,13.6s3-15.6,15.9-21.3
			c20.5-9,28.7-34.5,39.9-34.5c11.2,0,17.8,17.1,17.8,17.1l15.5,35.6v7.4H112z"/>
		<g id="XMLID_35_">
			<path id="XMLID_60_" class="st0" d="M69.8,187.1c0,0-9.1,76.4,29.4,71.8c38.5-4.6,54.1,3.1,54.1,3.1l-5.3,17
				c-13.2,0-28.7,2.3-39.7,11.4c-11,9.1-22.7,42.2-22.7,42.2l-4,13.9c8.1-4,4.7,7.3-4,21.9l-0.1,0.5c0,0-51.1,67.7-51.6,92.9
				c-0.2,8.7,28.9-4.9,62.6-4.9c12.8,0,40.7-2.6,51.1-7.9s74.9,34.9,74.9,34.9l41.1,0.2l71.7-222L69.8,187.1z M94.4,364.8
				c12-16.5,31.4-10.7,36,7.6C111.5,379.5,99.5,377,94.4,364.8z M90.5,363.3l-26.3,45.4h-7.6l-0.2-6.4c0,0,2.8,0.5,3.5-0.2
				c0.7-0.7,27.1-41.2,27.1-41.2c11.6-19.8,33.1-21.9,43.4-4.1l0,1.5C116.9,343,103.5,343.4,90.5,363.3z"/>
			<g id="XMLID_36_">
				<g id="XMLID_38_">
					<path id="XMLID_59_" class="st0" d="M55.3,470.9c-0.1,1.5,0.5,3,1.9,4.5c1.5-1.7,4-1.6,7.7,0C63.1,469.2,57.9,467.8,55.3,470.9
						z"/>
					<path id="XMLID_39_" class="st0" d="M181,538.3c-1.6-1.6-6.4-0.7-9.7-4.1c-3.3-3.3-4.6-7.7-6-11c-1.4-3.4-10.7-13.8-11.5-18
						s-11.1-13.8-13.5-16.1s-5.8-12.9-5.8-12.9s-2.3-1-5.8-7.4c-1.5-2.8-8.3-2.7-13.7-3.5c-6.9-1-12.9-2.5-15.3-2.5
						c-4.4,0-8.1,0.7-11.8,1c-3.7,0.3-12.4,3.2-14,4.8c-1.6,1.6-9.6,14.1-9.6,14.1l-2.3,3c-1.2,12.4-11.2,35-10.3,39.5
						c1.5,8.5,14.5,8.3,14.5,8.3l1.5,4.8c0,0-1,2.3-1.5,3.5c-0.5,1.2,1.3,4.2,2.9,4.3c2.9,1.4,1,4.1,1,4.1s-1.3,2.4-1,4.1
						c0.3,1.6,2.7,4.4,3.5,5.4c-0.5,3.2,1,13.7,1.9,16.7c6.3,19.4,42.2,17.6,59.8,14.7C156,586.6,182.6,539.9,181,538.3z
						 M64.9,523.1c-1.4,0.9-7.2,2.1-8.3-1.5c0,0,11.8-39.7,21.3-51.6c1,3.4,2.6,6.3,4.9,8.7c-6.7,10.8-12.1,27-10.8,41.8
						C67.6,520.1,64.9,523.1,64.9,523.1z M86.1,561.7c-3.3,1.2-7.2,0.6-11.6-1.3c0,0-2-2.8-2-3.5s1.5-0.4,1.5-0.4s2.3,1.6,3.9,1.8
						s3.6-1,5.4-1s10.2,1.1,9.7,2C92.6,560.3,86.1,561.7,86.1,561.7z M96.2,550.2c-1.7,0.6-9.6-0.3-10.5-0.7c-1-0.4-2.6-0.4-2.6-0.4
						s-1.8-0.1-3.2,0c-1.3,0.1-1.7,1.1-3.8,1.1s-1.7-1.8-1.6-2.5c0.1-0.8,3.1-1.6,5.1-1.6c2,0,4.7,1.2,4.7,1.2s6.5,1.5,9.3,1.2
						c1.4-0.1,4.1-0.2,4.4-0.1c0.2,0.1,3.3,2.4,2.8,3.9c-0.1,0.2-2-1.6-3-2C97.1,550,96.2,550.1,96.2,550.2z M77.1,536.8l-3.3,2.9
						c-1.2,0-2.4-3.5-3.6-6c0.7,0,1.4-0.1,2-0.2h0c1-0.4,3.2-1.5,2.9-3c-1.4-1.9-5.3,2-8.7,0c5.6-3.1,9.9-2.5,13.6,0
						c0,1.2-2.1,1.8-3.2,1.4c-0.5-0.4-1.3,1.5,0,1.8c3.1,0.7,5.3-1.5,6.1-2.7c2.1-7.1-1.6-4.2-5.7-15.9l5.7,8.4
						c3,4.8,9.8,10,17.1,13.5C95.5,535.9,85.9,535.3,77.1,536.8z M104.4,490.1c-7.7,0.1-12.2-8.9-12.2-8.9l-1.6-0.6
						c0,0-0.5-2.4,0.9-3.6c1.4-1.2,9-4.5,13.5-4.5c10.1,0,14.4,7.2,14.4,7.2S117.1,490,104.4,490.1z"/>
				</g>
				<path id="XMLID_37_" class="st0" d="M119.4,457.4c10.6,3.5,18.8,7.5,20,12.6c-1.9,5.6-0.8,12,4.3,14c6.3,2.5,13.6,9.8,12.4,14.4
					c-1.1,1.1,0.4,4,1.9,3.9c4.8,0.4,13.3,6.1,10.8,16.7c-1.7,7.6,4.9,16.2,14.2,12.3c1.3,9.4,17.2,8.1,20.9,6
					c4.2-2.5,10.2-6.8,9.3-17.6c5.5,12.6-4.6,22.2-13.4,23.4c8.3,3.2,8.7,7.1,7.3,9.6c-1.8,4.9-0.5,7.7,1.9,9.7
					c3.3,3.4,4,7.2,3.9,11.2c0,4.7,3.4,6,7.4,6.7l4.3,35.7H251l-7-105.9c-6.6,5-22.8,2.8-20.5-3.1c2.3-5.9,0.7-16.3-6.5-14.7
					s-18,0.5-17.5-6.3c0.5-6.7-10-14.1-15.5-12.9s-14.5,1.8-19.7-10.4c-1.8-3.5-11.6-8.4-19.4-8.4
					C130.8,454.3,119.4,457.4,119.4,457.4z"/>
			</g>
		</g>
	</g>
</g>
</svg>
